<?xml version="1.0" encoding="UTF-8"?>
<svg version="1.1" xmlns="http://www.w3.org/2000/svg" width="1536" height="1024">
<path d="M0 0 C506.88 0 1013.76 0 1536 0 C1536 337.92 1536 675.84 1536 1024 C1029.12 1024 522.24 1024 0 1024 C0 686.08 0 348.16 0 0 Z " fill="#FDFDFD" transform="translate(0,0)"/>
<path d="M0 0 C35.77400532 -1.22484058 70.02038444 9.21512335 96.72607422 33.66113281 C98.65270617 35.46341689 100.5642932 37.28051254 102.47607422 39.09863281 C103.12318359 39.68128906 103.77029297 40.26394531 104.43701172 40.86425781 C114.259284 49.99482077 121.0993092 62.49986579 128.14404297 73.77832031 C131.85847848 79.72456209 135.63271465 85.63196768 139.41357422 91.53613281 C140.09629395 92.60259033 140.77901367 93.66904785 141.48242188 94.76782227 C146.13475932 102.02637634 150.82148776 109.26176531 155.53125 116.4831543 C160.65369418 124.34711036 165.70566262 132.25581559 170.74560547 140.17285156 C176.48835859 149.17532316 182.31776779 158.10549606 188.53857422 166.78613281 C198.46367727 181.59532808 203.14168641 198.5883785 200.09375 216.32324219 C197.91760598 225.41043699 193.56921972 232.38864878 188.47607422 240.09863281 C187.85273193 241.04665771 187.22938965 241.99468262 186.5871582 242.97143555 C184.64255852 245.91583069 182.68657566 248.852304 180.72607422 251.78613281 C180.02579102 252.83486572 179.32550781 253.88359863 178.60400391 254.96411133 C173.40310438 262.73980221 168.16450633 270.48635707 162.81787109 278.16259766 C161.37502356 280.24443552 159.94909054 282.33735195 158.52294922 284.43066406 C142.56186446 307.68993046 124.66069919 321.80959411 96.47607422 327.09863281 C90.396366 327.84561101 84.3001056 327.75738331 78.18554688 327.69799805 C76.45016123 327.69986885 74.71477682 327.7039199 72.97940063 327.70994568 C68.33080266 327.7197959 63.6828291 327.69896059 59.03432131 327.67146564 C54.13710178 327.64737185 49.23988908 327.65057859 44.34262085 327.65016174 C36.13065217 327.64555646 27.91891775 327.62206425 19.70703125 327.58569336 C10.24392023 327.54388954 0.78101922 327.52637229 -8.68217885 327.52307361 C-18.81255716 327.5194619 -28.94286124 327.50058262 -39.07320833 327.47595334 C-41.97057278 327.46975712 -44.86793157 327.46610069 -47.76530075 327.46291924 C-52.33081762 327.4569754 -56.89618796 327.44054386 -61.46164322 327.41631508 C-63.12679662 327.40894002 -64.79196839 327.4048074 -66.45713806 327.40433502 C-90.97458132 327.39064785 -109.82631709 321.81325517 -127.52392578 304.09863281 C-134.74584574 295.98179703 -140.75905915 287.11613205 -146.77392578 278.09863281 C-147.7013986 276.71680955 -148.62946459 275.33538425 -149.55810547 273.9543457 C-150.94036125 271.89851924 -152.3222356 269.84245018 -153.70196533 267.78492737 C-157.353051 262.34118663 -161.05535095 256.93397242 -164.77392578 251.53613281 C-166.69609155 248.72735137 -168.61165244 245.91415608 -170.52392578 243.09863281 C-171.18038086 242.13618652 -171.18038086 242.13618652 -171.85009766 241.15429688 C-182.91126046 224.84876236 -187.70248909 210.29015845 -185.06298828 190.67285156 C-181.74798364 175.95033097 -172.6621826 164.06902387 -164.34667969 151.80371094 C-161.56885267 147.68124599 -158.85353605 143.51938004 -156.14892578 139.34863281 C-155.61759033 138.53015869 -155.08625488 137.71168457 -154.53881836 136.8684082 C-151.02973607 131.45145507 -147.55335991 126.01413068 -144.08422852 120.5715332 C-135.73223819 107.47196265 -127.23406089 94.47345923 -118.68066406 81.50463867 C-117.7442443 80.08418608 -116.80788266 78.66369518 -115.87158203 77.24316406 C-115.41845642 76.5561441 -114.96533081 75.86912415 -114.49847412 75.1612854 C-110.78118421 69.51476589 -107.13661563 63.82396917 -103.51879883 58.11328125 C-99.16814236 51.53857728 -94.23614054 45.53220295 -88.52392578 40.09863281 C-87.93740234 39.46828125 -87.35087891 38.83792969 -86.74658203 38.18847656 C-64.36128268 14.55260183 -32.25342514 1.26043565 0 0 Z " fill="#3859D3" transform="translate(760.52392578125,251.9013671875)"/>
<path d="M0 0 C2.91101085 5.3083139 0.50550067 12.22812491 -0.9375 17.75 C-1.15317627 18.59224121 -1.36885254 19.43448242 -1.59106445 20.30224609 C-3.59189376 27.94077505 -5.83166576 35.50734217 -8.125 43.0625 C-8.64223633 44.7791687 -8.64223633 44.7791687 -9.16992188 46.53051758 C-9.49927734 47.5955249 -9.82863281 48.66053223 -10.16796875 49.7578125 C-10.46082764 50.70930176 -10.75368652 51.66079102 -11.05541992 52.64111328 C-11.9375 54.9375 -11.9375 54.9375 -13.9375 56.9375 C-17.0625 57.6875 -17.0625 57.6875 -20.9375 56.9375 C-24.00247196 53.87787703 -26.48770566 50.50083722 -28.9375 46.9375 C-32.79004222 47.44942213 -34.64689533 48.1816447 -37.25 51.0625 C-39.55421932 53.5091977 -41.86087994 55.78006976 -44.4375 57.9375 C-48.65284289 61.5600603 -52.52940072 65.4911001 -56.4375 69.4375 C-60.84650586 73.88958885 -65.25907586 78.22620501 -70.05078125 82.26953125 C-72.45251098 84.39279956 -74.68454563 86.6572784 -76.9375 88.9375 C-80.52897031 92.56746999 -84.17242044 96.0467096 -88.08203125 99.33203125 C-89.96209669 100.91008943 -89.96209669 100.91008943 -91.63671875 102.69921875 C-94.83634533 105.89884533 -97.23303401 107.39664614 -101.8125 107.75 C-108.09979939 107.29754067 -111.43482029 104.06157601 -115.9375 99.9375 C-117.09320574 98.93126825 -118.25232251 97.92894637 -119.4140625 96.9296875 C-121.99520707 94.70847808 -124.56750374 92.47775963 -127.1328125 90.23828125 C-132.32696607 85.71676135 -137.59452994 81.28233279 -142.9375 76.9375 C-143.63746094 76.36257813 -144.33742188 75.78765625 -145.05859375 75.1953125 C-148.11415892 73.14979902 -150.3637897 73.44457444 -153.9375 73.9375 C-156.25711916 75.56123341 -157.99181381 76.95902135 -159.9375 78.9375 C-160.72125 79.700625 -161.505 80.46375 -162.3125 81.25 C-163.17875 82.136875 -164.045 83.02375 -164.9375 83.9375 C-169.41599028 88.51271793 -173.9609481 92.91887815 -178.8125 97.09765625 C-182.91127684 100.64641341 -186.91388177 104.30405081 -190.9375 107.9375 C-200.43288934 116.51212432 -200.43288934 116.51212432 -204.75 120.25 C-210.5982874 125.34670027 -216.25077948 130.66225501 -221.9375 135.9375 C-235.39508844 148.42133416 -235.39508844 148.42133416 -241.44921875 153.6328125 C-242.65364326 154.68865971 -243.80492512 155.80492512 -244.9375 156.9375 C-248.04097254 157.26765665 -250.09531176 157.44281294 -252.8125 155.8125 C-254.57280047 152.87866588 -254.51329188 151.32827439 -253.9375 147.9375 C-252.30153989 144.97620511 -250.12580507 142.50620202 -247.9375 139.9375 C-247.04291028 138.86984066 -246.14838381 137.80212831 -245.25390625 136.734375 C-239.94035197 130.4375797 -234.47678661 124.30060094 -228.87011719 118.2644043 C-225.95211937 115.10288936 -223.19429745 111.85333423 -220.5 108.5 C-216.65639943 103.72128372 -212.56789836 99.24592313 -208.37915039 94.77368164 C-205.26196055 91.42650673 -202.30176202 88.00744977 -199.4375 84.4375 C-195.61562542 79.67400415 -191.54424093 75.21989404 -187.37231445 70.7668457 C-184.31540778 67.4851166 -181.420386 64.13634174 -178.625 60.625 C-174.62874301 55.64811168 -170.35778238 50.9713524 -166 46.3125 C-165.33637451 45.60053467 -164.67274902 44.88856934 -163.98901367 44.1550293 C-163.36486572 43.492854 -162.74071777 42.83067871 -162.09765625 42.1484375 C-161.53699463 41.55337402 -160.97633301 40.95831055 -160.39868164 40.34521484 C-157.55076497 37.60150766 -154.95227431 37.75818759 -151.10546875 37.609375 C-145.9855289 38.38428481 -142.45075347 42.14145569 -138.8125 45.5625 C-135.15361992 48.94745323 -131.45235554 52.19606603 -127.5625 55.3125 C-122.62272747 59.29274837 -117.96720136 63.51761611 -113.35205078 67.86474609 C-111.89248135 69.23516763 -110.41562551 70.58711373 -108.9375 71.9375 C-108.27621094 72.54851562 -107.61492187 73.15953125 -106.93359375 73.7890625 C-104.0590525 75.44290815 -102.20018625 75.4047901 -98.9375 74.9375 C-96.34704449 73.2890691 -96.34704449 73.2890691 -94.0625 70.9375 C-93.20140625 70.11507812 -92.3403125 69.29265625 -91.453125 68.4453125 C-90.62296875 67.61773437 -89.7928125 66.79015625 -88.9375 65.9375 C-88.23109375 65.23367188 -87.5246875 64.52984375 -86.796875 63.8046875 C-85.56097357 62.56392031 -84.33291175 61.31523108 -83.1171875 60.0546875 C-81.25476327 58.24566611 -79.35343035 56.56646716 -77.3828125 54.87890625 C-71.97633635 50.18219439 -66.97582576 45.08409732 -61.9375 40 C-60.96247614 39.0199469 -59.9872172 38.0401276 -59.01171875 37.06054688 C-56.65133382 34.68847687 -54.29333095 32.3140914 -51.9375 29.9375 C-53.43878225 26.7553897 -54.92867351 24.84659849 -57.5625 22.5 C-60.85611702 19.29558511 -60.85611702 19.29558511 -61.5625 16.1875 C-60.82481017 13.53181661 -60.03306322 12.69093843 -57.9375 10.9375 C-56.02935791 10.21055603 -56.02935791 10.21055603 -53.85253906 9.71069336 C-53.03448792 9.51716782 -52.21643677 9.32364227 -51.37359619 9.12425232 C-50.4923407 8.92727249 -49.61108521 8.73029266 -48.703125 8.52734375 C-47.79173767 8.31437149 -46.88035034 8.10139923 -45.94134521 7.88197327 C-43.02565648 7.20275422 -40.10681139 6.538458 -37.1875 5.875 C-34.28326941 5.20484855 -31.37976024 4.53166321 -28.47650146 3.85731506 C-26.67078755 3.43900929 -24.86437998 3.02368298 -23.05718994 2.61180115 C-19.36139966 1.7647876 -15.69713267 0.89348898 -12.06152344 -0.18530273 C-7.90986179 -1.35105143 -3.92149855 -2.15049921 0 0 Z " fill="#FBFBFD" transform="translate(859.9375,328.0625)"/>
<path d="M0 0 C2.58653471 1.88525594 4.69686903 4.06996954 6.97024536 6.32141113 C9.45116606 8.64196297 12.11448775 10.2869872 15.03750801 12.02277374 C18.7343747 14.37109521 22.16126974 16.74174749 23.73142242 20.96932983 C24.8675085 26.68929231 24.5637949 32.48362091 24.3828125 38.28125 C24.37337237 40.14544622 24.3701266 42.00968312 24.37277222 43.87390137 C24.36517829 48.75417118 24.28270013 53.63016421 24.18133545 58.50927734 C24.03375473 66.3440065 24.01117779 74.18048836 23.96938705 82.01634216 C23.94556316 84.75246264 23.89597769 87.48712285 23.84109497 90.22277832 C23.81849096 91.88875036 23.79608996 93.55472517 23.77392578 95.22070312 C23.75206711 95.98326416 23.73020844 96.7458252 23.70768738 97.53149414 C23.65133093 99.85098104 23.65133093 99.85098104 24 103 C27.40733358 105.27155572 28.56012547 105.24088663 32.55371094 105.21118164 C33.69209412 105.20780289 34.83047729 105.20442413 36.00335693 105.20094299 C37.85021088 105.18075356 37.85021088 105.18075356 39.734375 105.16015625 C41.63416107 105.1523539 41.63416107 105.1523539 43.57232666 105.14439392 C46.94319641 105.12957301 50.31379562 105.10667146 53.68457031 105.07904053 C58.41794736 105.04113435 63.15135014 105.01330913 67.88482666 104.99131775 C70.40353652 104.97910777 72.92222755 104.96155076 75.44085693 104.93800354 C81.09602563 104.9059152 86.42327698 105.09750668 92 106 C94.40008224 105.40020575 94.40008224 105.40020575 96.5625 104.25 C100.6452207 102.4347691 104.48517844 101.39980885 108.875 100.5625 C117.00589651 98.94163501 124.26186144 95.94021071 131.625 92.1875 C134 91 134 91 136 91 C132.2337223 99.97373309 119.45882951 104.30402494 111 108 C88.47028116 116.97628753 64.75319352 120.11180774 40.6875 120.3125 C40.0117392 120.32221832 39.33597839 120.33193665 38.63973999 120.34194946 C19.62622881 120.57352261 1.54074827 116.69157608 -16.8125 112.0625 C-18.56946165 111.62744748 -20.32662317 111.19320136 -22.08398438 110.75976562 C-26.28982716 109.71912165 -30.49033886 108.6588819 -34.68838501 107.58724976 C-36.87064049 107.03286289 -39.05546133 106.48988853 -41.2409668 105.94848633 C-48.56896289 104.10404545 -55.37576628 101.84219761 -62.1875 98.5625 C-63.89265958 97.76830719 -65.59838718 96.97533276 -67.3046875 96.18359375 C-68.10874023 95.80702637 -68.91279297 95.43045898 -69.74121094 95.04248047 C-73.64193002 93.24221345 -77.60703849 91.61567377 -81.5859375 89.99609375 C-83.73136429 89.11084483 -85.83089894 88.16012219 -87.9375 87.1875 C-90.95943695 86.01572853 -92.81103155 85.46850526 -96 86 C-97.93654948 87.01970318 -97.93654948 87.01970318 -99 89 C-99.25048636 92.12549017 -99.25048636 92.12549017 -99 95 C-100.32 93.68 -101.64 92.36 -103 91 C-95.82399696 82.22932961 -87.72902369 74.18527373 -79.08203125 66.8671875 C-75.79471404 63.91908689 -72.73433382 60.74141488 -69.67944336 57.55444336 C-68.48910889 56.33331885 -67.24813346 55.16198283 -66 54 C-65.34 54 -64.68 54 -64 54 C-63.7525 53.401875 -63.505 52.80375 -63.25 52.1875 C-61.76388147 49.58679257 -60.62050161 48.45583423 -58 47 C-55.17578125 46.625 -55.17578125 46.625 -52 47 C-49.40234375 49.046875 -49.40234375 49.046875 -46.9375 51.75 C-43.48395608 55.55356822 -43.48395608 55.55356822 -39.38574219 58.58056641 C-36.32505908 61.68447242 -36.40077078 63.4293918 -36.33235168 67.65298462 C-36.34766182 68.95784317 -36.34766182 68.95784317 -36.36328125 70.2890625 C-36.34771431 71.63851456 -36.34771431 71.63851456 -36.33183289 73.01522827 C-36.30214042 75.88554144 -36.30553058 78.75456085 -36.3125 81.625 C-36.3036197 84.50221721 -36.28772376 87.37908747 -36.2610321 90.25619507 C-36.24606614 92.04570686 -36.24234359 93.8353541 -36.25080872 95.62490845 C-36.45890933 100.29374895 -36.45890933 100.29374895 -34 104 C-31.31160615 104.26991906 -28.70858064 104.08737357 -26 104 C-24.45850062 100.91700124 -24.97037305 97.70646034 -25.06445312 94.33178711 C-25.10055462 92.68865212 -25.13579138 91.04549796 -25.17028809 89.40232849 C-25.18955856 88.52761839 -25.20882904 87.65290829 -25.22868347 86.75169182 C-25.33731472 81.1216959 -25.36761011 75.49065576 -25.40752411 69.85982418 C-25.44684292 64.92499129 -25.51630042 59.99439963 -25.65478516 55.0612793 C-26.63674928 18.71230564 -26.63674928 18.71230564 -17.9107666 9.03968811 C-7.06372399 -0.81025069 -7.06372399 -0.81025069 0 0 Z " fill="#D050AF" transform="translate(714,435)"/>
<path d="M0 0 C0.495 0.495 0.495 0.495 1 1 C3.28988781 1.15888092 5.58443441 1.25138073 7.87890625 1.31640625 C8.5655687 1.33718735 9.25223114 1.35796844 9.95970154 1.37937927 C12.16052935 1.44494143 14.36147975 1.50379015 16.5625 1.5625 C18.05144514 1.60567892 19.54037773 1.649293 21.02929688 1.69335938 C24.68606553 1.8006293 28.34297318 1.90187772 32 2 C32 6.29 32 10.58 32 15 C28.7 15.33 25.4 15.66 22 16 C22.495 17.98 22.495 17.98 23 20 C23.61610134 28.95716565 23.73602182 36.67408 17.625 43.75 C16.325625 44.86375 16.325625 44.86375 15 46 C14.2575 46.70125 13.515 47.4025 12.75 48.125 C5.19261018 53.27776579 -2.66720675 53.39661178 -11.5625 53.1875 C-12.66658203 53.17396484 -13.77066406 53.16042969 -14.90820312 53.14648438 C-17.60599272 53.11144815 -20.30272636 53.06232591 -23 53 C-23.2502157 55.91634129 -23.2502157 55.91634129 -23 59 C-19.57234208 61.28510528 -17.77530393 61.40241663 -13.71484375 61.74609375 C-12.46123047 61.86146484 -11.20761719 61.97683594 -9.91601562 62.09570312 C-7.29114796 62.32120722 -4.66614982 62.54519834 -2.04101562 62.76757812 C19.76398398 64.78223097 19.76398398 64.78223097 26.4375 72.70703125 C31.0268417 78.90003497 31.87152421 84.34661501 31 92 C28.81990217 98.8433564 25.1819363 104.2824131 19 108 C8.93134887 112.9356133 0.49356151 115.19008808 -10.6875 115.25 C-12.10192383 115.2809375 -12.10192383 115.2809375 -13.54492188 115.3125 C-23.41840928 115.36678722 -32.12042815 113.1244932 -40 107 C-44.66448975 102.33551025 -46.70527642 96.84899465 -47.375 90.375 C-46.44592566 82.01333094 -41.15689837 78.08557224 -35 73 C-35.825 72.4225 -36.65 71.845 -37.5 71.25 C-40.24440509 68.48193625 -40.53683817 66.01956834 -40.75 62.1875 C-40.54571706 56.2851823 -38.68686106 53.38479294 -34.53125 49.328125 C-34.0259375 48.88984375 -33.520625 48.4515625 -33 48 C-33.39832031 47.5153125 -33.79664063 47.030625 -34.20703125 46.53125 C-39.45781854 39.88791815 -42.64820139 33.92262838 -42.27734375 25.2890625 C-41.20632955 16.44942421 -37.2671685 10.26691294 -30.375 4.68359375 C-21.70317469 -0.96560014 -9.92233251 -0.60093 0 0 Z " fill="#142563" transform="translate(855,640)"/>
<path d="M0 0 C2.32274588 1.57699118 4.21047953 3.0558294 6.25 4.9375 C7.01376953 5.61135742 7.01376953 5.61135742 7.79296875 6.29882812 C8.87116548 7.25444258 9.93065703 8.23152643 10.97166443 9.2275238 C12.99626763 11.08505607 12.99626763 11.08505607 15.51210022 12.6084137 C19.08403554 15.13722597 22.30915584 17.55167866 23.54535294 21.93270683 C24.36520111 27.72131346 24.02339578 33.55311884 23.79296875 39.375 C23.75434443 41.26863449 23.72010048 43.1623629 23.6900177 45.05615234 C23.59885987 50.02590154 23.44637773 54.99194646 23.28137207 59.9597168 C23.12579829 64.99836498 23.03237881 70.03813909 22.93164062 75.078125 C22.77284745 82.46186595 22.59613081 89.8447332 22.36401367 97.2265625 C22.3318148 98.36306244 22.3318148 98.36306244 22.29896545 99.52252197 C22.12458528 104.72349932 21.6239903 109.83331166 21 115 C20.360625 115.103125 19.72125 115.20625 19.0625 115.3125 C18.381875 115.539375 17.70125 115.76625 17 116 C16.505 117.485 16.505 117.485 16 119 C13.77734375 120.28125 13.77734375 120.28125 10.9375 121.5 C9.44283203 122.14388672 9.44283203 122.14388672 7.91796875 122.80078125 C2.02245304 125.22370404 -3.85056828 127.29182452 -10 129 C-11.010625 129.37125 -12.02125 129.7425 -13.0625 130.125 C-16.18630095 131.0554939 -18.7591588 131.15432577 -22 131 C-22 131.66 -22 132.32 -22 133 C-22.99 132.67 -23.98 132.34 -25 132 C-25.44660483 117.59625402 -25.77892942 103.1936008 -25.98443127 88.78431988 C-26.08184986 82.09105003 -26.21668557 75.40275187 -26.43334961 68.7121582 C-26.64157712 62.24072507 -26.75374913 55.77376142 -26.80266762 49.29923439 C-26.83746836 46.84411076 -26.90543414 44.38920092 -27.00887108 41.93601036 C-27.51945159 29.31116504 -27.20311465 20.06882462 -18.3653841 10.40421009 C-6.98175242 -0.79924665 -6.98175242 -0.79924665 0 0 Z " fill="#1B72EF" transform="translate(835,405)"/>
<path d="M0 0 C2.58050969 2.4946517 4.83901909 5.13722143 7 8 C7.9590625 6.948125 7.9590625 6.948125 8.9375 5.875 C15.8496034 -0.97852625 23.19512351 -4.90596925 33 -5.25 C42.0014923 -4.96815288 49.48299767 -1.89163135 55.75 4.625 C62.52049782 11.87006542 62.42317628 22.25541386 62.29296875 31.5703125 C62.28872391 32.73255341 62.28447906 33.89479431 62.28010559 35.09225464 C62.26343926 38.77008153 62.22580894 42.44734136 62.1875 46.125 C62.17243762 48.63280453 62.15875195 51.14061774 62.14648438 53.6484375 C62.11357513 59.76584036 62.06187619 65.88282435 62 72 C55.4 72 48.8 72 42 72 C41.98541748 70.5773584 41.97083496 69.1547168 41.95581055 67.68896484 C41.89774184 62.3996495 41.82050874 57.11075603 41.73754883 51.82177734 C41.70433994 49.53473774 41.67629549 47.24761697 41.65356445 44.96044922 C41.6199449 41.66859422 41.56762376 38.37748028 41.51171875 35.0859375 C41.50532883 34.06696381 41.4989389 33.04799011 41.49235535 31.99813843 C41.38114336 26.60140075 41.05857504 22.64715908 38 18 C34.08968596 14.4562779 30.39357818 13.62971364 25.125 13.7265625 C21.5220611 14.19017596 18.63284462 15.49879761 16 18 C11.76148085 23.97883827 11.39956529 28.74691861 11.390625 35.96484375 C11.37408875 36.99815323 11.35755249 38.03146271 11.34051514 39.09608459 C11.29216773 42.37661767 11.27069306 45.65668759 11.25 48.9375 C11.22182933 51.16994501 11.19190037 53.40236857 11.16015625 55.63476562 C11.08641189 61.08980561 11.03675597 66.54459047 11 72 C4.4 72 -2.2 72 -9 72 C-9.01458252 70.5773584 -9.02916504 69.1547168 -9.04418945 67.68896484 C-9.10225816 62.3996495 -9.17949126 57.11075603 -9.26245117 51.82177734 C-9.29566006 49.53473774 -9.32370451 47.24761697 -9.34643555 44.96044922 C-9.3800551 41.66859422 -9.43237624 38.37748028 -9.48828125 35.0859375 C-9.49467117 34.06696381 -9.5010611 33.04799011 -9.50764465 31.99813843 C-9.61885664 26.60140075 -9.94142496 22.64715908 -13 18 C-16.91031404 14.4562779 -20.60642182 13.62971364 -25.875 13.7265625 C-29.4779389 14.19017596 -32.36715538 15.49879761 -35 18 C-39.23851915 23.97883827 -39.60043471 28.74691861 -39.609375 35.96484375 C-39.62591125 36.99815323 -39.64244751 38.03146271 -39.65948486 39.09608459 C-39.70783227 42.37661767 -39.72930694 45.65668759 -39.75 48.9375 C-39.77817067 51.16994501 -39.80809963 53.40236857 -39.83984375 55.63476562 C-39.91358811 61.08980561 -39.96324403 66.54459047 -40 72 C-46.6 72 -53.2 72 -60 72 C-60 47.25 -60 22.5 -60 -3 C-53.73 -3 -47.46 -3 -41 -3 C-40.67 -0.03 -40.34 2.94 -40 6 C-39.47792969 5.45730469 -38.95585937 4.91460938 -38.41796875 4.35546875 C-27.87161847 -5.89536208 -12.73647701 -8.4830194 0 0 Z " fill="#132564" transform="translate(491,645)"/>
<path d="M0 0 C7.71339854 7.15610866 11.85650511 16.76698789 12.50390625 27.2265625 C12.82561716 38.70762069 9.6147563 47.0347926 3.19140625 56.39453125 C-4.36669282 63.95263032 -14.2562073 68.5266606 -24.9284668 68.67553711 C-25.77578369 68.66530518 -26.62310059 68.65507324 -27.49609375 68.64453125 C-28.38014893 68.63623291 -29.2642041 68.62793457 -30.17504883 68.61938477 C-36.67353878 68.45084986 -42.02342924 67.71990451 -47.62109375 64.20703125 C-48.40613281 63.72105469 -49.19117188 63.23507812 -50 62.734375 C-58.57642501 56.75772297 -63.08601585 48.18522755 -65.62109375 38.20703125 C-66.05007636 35.08883504 -66.14696384 32.03968688 -66.12109375 28.89453125 C-66.11464844 28.06711426 -66.10820313 27.23969727 -66.1015625 26.38720703 C-65.79163366 15.92914766 -62.20328977 7.73535518 -54.921875 0.1796875 C-38.73482377 -13.69885387 -16.49760508 -12.94353586 0 0 Z " fill="#142562" transform="translate(956.62109375,649.79296875)"/>
<path d="M0 0 C9.43090886 -0.40354127 18.86213367 1.73021444 26.55078125 7.3359375 C32.53458539 13.00044774 35.33946599 19.58956038 35.61245728 27.75189209 C35.64310988 30.89110054 35.63964384 34.02864447 35.625 37.16796875 C35.62358505 38.3136734 35.6221701 39.45937805 35.62071228 40.63980103 C35.61512955 44.28723803 35.60258016 47.9346129 35.58984375 51.58203125 C35.58482652 54.05989494 35.580264 56.5377596 35.57617188 59.015625 C35.56516576 65.0794509 35.54791295 71.14323055 35.52734375 77.20703125 C29.25734375 77.20703125 22.98734375 77.20703125 16.52734375 77.20703125 C16.03234375 72.75203125 16.03234375 72.75203125 15.52734375 68.20703125 C15.03105469 68.67753906 14.53476562 69.14804687 14.0234375 69.6328125 C13.00443359 70.56673828 13.00443359 70.56673828 11.96484375 71.51953125 C11.30355469 72.13441406 10.64226563 72.74929688 9.9609375 73.3828125 C4.28686692 77.63608852 -1.0306469 78.74224937 -7.91015625 78.64453125 C-9.03611206 78.63208374 -9.03611206 78.63208374 -10.18481445 78.61938477 C-17.79740808 78.38633772 -22.47549095 76.534401 -27.78515625 71.01953125 C-32.15218061 65.39967203 -33.79026695 59.73857109 -33.53515625 52.64453125 C-32.76128468 46.87273914 -30.73593715 43.15099759 -26.47265625 39.20703125 C-16.72692711 31.7903662 -7.34697578 30.88622222 4.58984375 31.08203125 C5.64623047 31.09105469 6.70261719 31.10007812 7.79101562 31.109375 C10.37003628 31.13271455 12.94856365 31.1654535 15.52734375 31.20703125 C15.25779528 29.75689062 14.97374314 28.30944084 14.68359375 26.86328125 C14.52697266 26.05697266 14.37035156 25.25066406 14.20898438 24.41992188 C13.20971364 21.17587104 11.37274168 19.91427001 8.52734375 18.20703125 C3.55455913 15.72063894 -3.95415238 16.46651046 -9.15625 17.99609375 C-13.12457157 19.74938254 -16.76554789 21.96029891 -20.47265625 24.20703125 C-21.13265625 24.20703125 -21.79265625 24.20703125 -22.47265625 24.20703125 C-24.19921875 21.90625 -24.19921875 21.90625 -26.09765625 18.89453125 C-26.72929688 17.90839844 -27.3609375 16.92226563 -28.01171875 15.90625 C-29.47265625 13.20703125 -29.47265625 13.20703125 -29.47265625 10.20703125 C-19.6444274 4.90447365 -11.2532484 0.94221511 0 0 Z " fill="#162765" transform="translate(764.47265625,639.79296875)"/>
<path d="M0 0 C9.81736076 -0.52232633 18.81282259 1.82542844 26.5 8.19921875 C33.9367848 16.23094634 34.59876544 23.61721508 34.4609375 34.19921875 C34.45669266 35.43229263 34.45244781 36.66536652 34.44807434 37.93580627 C34.43133612 41.85847174 34.3936914 45.78061586 34.35546875 49.703125 C34.33871972 52.36913311 34.32672844 55.03513632 34.31445312 57.70117188 C34.28144826 64.22285589 34.22969814 70.74415217 34.16796875 77.265625 C28.22796875 77.265625 22.28796875 77.265625 16.16796875 77.265625 C16.16796875 73.965625 16.16796875 70.665625 16.16796875 67.265625 C15.50796875 67.265625 14.84796875 67.265625 14.16796875 67.265625 C13.98234375 67.8225 13.79671875 68.379375 13.60546875 68.953125 C10.35249983 74.18616196 4.95973017 76.67825335 -0.83203125 78.265625 C-10.73785857 79.10135237 -19.81344851 78.64404309 -27.83203125 72.265625 C-33.52301544 66.10039213 -34.30268141 60.60936621 -34.13671875 52.421875 C-33.44679781 45.2750017 -29.42685523 41.24681249 -24.05078125 36.7734375 C-17.8275999 32.5443037 -9.94725294 31.12460031 -2.53125 31.16796875 C-1.55478516 31.17119141 -0.57832031 31.17441406 0.42773438 31.17773438 C1.43513672 31.18611328 2.44253906 31.19449219 3.48046875 31.203125 C4.50720703 31.20763672 5.53394531 31.21214844 6.59179688 31.21679688 C9.11724757 31.22854316 11.6425778 31.24496935 14.16796875 31.265625 C13.93878907 29.65835173 13.68376073 28.05475084 13.41796875 26.453125 C13.27875 25.55980469 13.13953125 24.66648437 12.99609375 23.74609375 C11.98131826 20.70655397 10.89713946 19.86774929 8.16796875 18.265625 C1.84327528 16.15739384 -5.0239816 16.19375233 -11.25 18.5703125 C-14.16543783 20.05466453 -16.99430343 21.63956192 -19.83203125 23.265625 C-20.82203125 23.595625 -21.81203125 23.925625 -22.83203125 24.265625 C-24.19859582 22.50434156 -25.5499721 20.73126412 -26.89453125 18.953125 C-27.64863281 17.96699219 -28.40273437 16.98085938 -29.1796875 15.96484375 C-29.72496094 15.07410156 -30.27023437 14.18335938 -30.83203125 13.265625 C-29.31223265 8.7062292 -25.93523185 7.84151858 -21.81640625 5.69140625 C-14.63315549 2.2596176 -7.91324146 0.74220748 0 0 Z " fill="#152663" transform="translate(1069.83203125,639.734375)"/>
<path d="M0 0 C4.9458529 4.69973226 8.60965571 9.85456902 9.2628479 16.79142761 C9.34652769 20.17602373 9.33706212 23.54824085 9.29296875 26.93359375 C9.28872391 28.16666763 9.28447906 29.39974152 9.28010559 30.67018127 C9.26336737 34.59284674 9.22572265 38.51499086 9.1875 42.4375 C9.17075097 45.10350811 9.15875969 47.76951132 9.14648438 50.43554688 C9.11347951 56.95723089 9.06172939 63.47852717 9 70 C3.06 70 -2.88 70 -9 70 C-9.495 65.545 -9.495 65.545 -10 61 C-10.49628906 61.47050781 -10.99257813 61.94101562 -11.50390625 62.42578125 C-12.52291016 63.35970703 -12.52291016 63.35970703 -13.5625 64.3125 C-14.22378906 64.92738281 -14.88507812 65.54226563 -15.56640625 66.17578125 C-21.24004632 70.42873456 -26.55823037 71.53597311 -33.4375 71.4375 C-34.56454346 71.42396484 -34.56454346 71.42396484 -35.71435547 71.41015625 C-43.77904026 71.15731179 -48.25884053 69.04879881 -53.875 63.25 C-58.44288966 57.5870683 -59.23723298 52.66641301 -59 45.5 C-58.19544806 38.82314364 -55.31182319 34.71612052 -50.17578125 30.50390625 C-41.2888207 24.42904681 -31.87546502 23.56370405 -21.375 23.8125 C-19.72564453 23.83280273 -19.72564453 23.83280273 -18.04296875 23.85351562 C-15.36144668 23.888492 -12.68099927 23.93756928 -10 24 C-10.2784375 22.74058594 -10.556875 21.48117187 -10.84375 20.18359375 C-11.00037109 19.47517334 -11.15699219 18.76675293 -11.31835938 18.03686523 C-12.59589804 14.21934909 -15.4726807 11.76365965 -19 10 C-29.35596745 8.87311098 -36.11758691 10.83647162 -45 16 C-45.99 16.33 -46.98 16.66 -48 17 C-49.33905267 15.2126038 -50.67109066 13.41995047 -52 11.625 C-52.7425 10.62726562 -53.485 9.62953125 -54.25 8.6015625 C-56 6 -56 6 -56 4 C-40.42065621 -8.18915436 -16.87594782 -12.15068243 0 0 Z " fill="#142563" transform="translate(623,647)"/>
<path d="M0 0 C2.31863524 1.15460495 4.00750722 2.52341845 5.921875 4.26953125 C6.581875 4.86378906 7.241875 5.45804687 7.921875 6.0703125 C8.581875 6.69292969 9.241875 7.31554687 9.921875 7.95703125 C10.61375916 8.4894342 11.30564331 9.02183716 12.01849365 9.57037354 C14.68293369 12.91132588 14.45319774 15.94006581 14.37597656 20.03027344 C14.37656067 20.8404039 14.37714478 21.65053436 14.37774658 22.48521423 C14.37496352 25.15854996 14.3438619 27.83076572 14.3125 30.50390625 C14.30503838 32.35906363 14.29934507 34.21422889 14.29534912 36.06939697 C14.28008655 40.94893202 14.24079936 45.82798978 14.1965332 50.70733643 C14.14839437 56.56347287 14.13004945 62.41976902 14.10671997 68.27604675 C14.06794871 77.17004007 13.99129946 86.06298641 13.921875 94.95703125 C-1.588125 94.95703125 -17.098125 94.95703125 -33.078125 94.95703125 C-33.27866905 77.89741768 -33.27866905 77.89741768 -33.32226562 70.625 C-33.35215478 65.66265126 -33.38751042 60.70076382 -33.45532227 55.73876953 C-33.50965336 51.73816119 -33.53954751 47.73804749 -33.55251122 43.73709869 C-33.56174931 42.21080996 -33.57978973 40.68454828 -33.60677528 39.15847015 C-33.64308393 37.02009114 -33.64807015 34.8837549 -33.64575195 32.74511719 C-33.65685501 31.52822205 -33.66795807 30.3113269 -33.67939758 29.05755615 C-33.078125 25.95703125 -33.078125 25.95703125 -30.71061707 23.67340088 C-29.84189468 23.1069989 -28.9731723 22.54059692 -28.078125 21.95703125 C-26.7478125 20.84328125 -26.7478125 20.84328125 -25.390625 19.70703125 C-23.078125 17.95703125 -23.078125 17.95703125 -21.078125 17.95703125 C-21.078125 17.29703125 -21.078125 16.63703125 -21.078125 15.95703125 C-18.61541264 13.4096411 -15.79295887 11.23001422 -13.078125 8.95703125 C-11.67240234 7.72146484 -11.67240234 7.72146484 -10.23828125 6.4609375 C-8.79775391 5.22150391 -8.79775391 5.22150391 -7.328125 3.95703125 C-6.42578125 3.17328125 -5.5234375 2.38953125 -4.59375 1.58203125 C-2.078125 -0.04296875 -2.078125 -0.04296875 0 0 Z " fill="#206FEC" transform="translate(783.078125,444.04296875)"/>
<path d="M0 0 C6.82608105 6.2631053 8.90554283 13.8946975 9.44317627 22.94244385 C9.50308048 26.036729 9.49877518 29.12404774 9.46875 32.21875 C9.4659201 33.33659882 9.46309021 34.45444763 9.46017456 35.60617065 C9.44906967 39.14120651 9.42398328 42.67597953 9.3984375 46.2109375 C9.38839517 48.62239215 9.37927152 51.03385081 9.37109375 53.4453125 C9.34916212 59.32562055 9.31469985 65.20573462 9.2734375 71.0859375 C2.6734375 71.0859375 -3.9265625 71.0859375 -10.7265625 71.0859375 C-10.74114502 69.63300293 -10.75572754 68.18006836 -10.77075195 66.68310547 C-10.82881368 61.28197879 -10.90604689 55.88126555 -10.98901367 50.48046875 C-11.02222583 48.14492513 -11.05026926 45.80930197 -11.07299805 43.47363281 C-11.10661151 40.11228605 -11.15893253 36.75166581 -11.21484375 33.390625 C-11.22123367 32.34977753 -11.2276236 31.30893005 -11.23420715 30.23654175 C-11.3437455 24.8102276 -11.59055783 20.72904892 -14.7265625 16.0859375 C-18.94236716 13.00120239 -23.08454666 12.43612021 -28.19140625 12.61328125 C-32.62212161 13.43934683 -35.90914375 15.59832445 -38.7265625 19.0859375 C-41.56733576 25.36860328 -42.19077944 30.64444104 -42.23828125 37.4921875 C-42.25623245 38.4574939 -42.27418365 39.42280029 -42.29267883 40.4173584 C-42.34647448 43.47350818 -42.38057856 46.52950456 -42.4140625 49.5859375 C-42.44726272 51.66929204 -42.48175486 53.75262641 -42.51757812 55.8359375 C-42.6045941 60.91928916 -42.66492568 66.00196262 -42.7265625 71.0859375 C-49.3265625 71.0859375 -55.9265625 71.0859375 -62.7265625 71.0859375 C-62.7265625 46.3359375 -62.7265625 21.5859375 -62.7265625 -3.9140625 C-56.4565625 -3.9140625 -50.1865625 -3.9140625 -43.7265625 -3.9140625 C-43.7265625 -0.6140625 -43.7265625 2.6859375 -43.7265625 6.0859375 C-43.0665625 6.0859375 -42.4065625 6.0859375 -41.7265625 6.0859375 C-41.4996875 5.5084375 -41.2728125 4.9309375 -41.0390625 4.3359375 C-37.94362031 -0.97053483 -32.1141538 -3.93344397 -26.3515625 -5.6015625 C-17.16907098 -6.69471625 -7.74826535 -5.43932668 0 0 Z " fill="#142563" transform="translate(710.7265625,645.9140625)"/>
<path d="M0 0 C2.59765625 2.046875 2.59765625 2.046875 5.0625 4.75 C8.50782916 8.55122978 8.50782916 8.55122978 12.61206055 11.55322266 C16.22869819 15.25897283 15.71053636 18.73016046 15.671875 23.7265625 C15.68462463 24.67058929 15.69737427 25.61461609 15.71051025 26.58724976 C15.74683001 29.60013845 15.74951944 32.61191152 15.75 35.625 C15.77159752 38.64481337 15.80003331 41.66445682 15.83233643 44.68417358 C15.85012806 46.56271729 15.86038497 48.44135002 15.86248779 50.31997681 C15.86629456 51.16780731 15.87010132 52.01563782 15.87402344 52.88916016 C15.87448669 53.63654449 15.87494995 54.38392883 15.87542725 55.15396118 C15.88718312 57.09601527 15.88718312 57.09601527 17 59 C1.03771983 60.45111638 -17.79669251 48.50453798 -31.84375 41.97265625 C-37.68166382 39.24884821 -37.68166382 39.24884821 -44 39 C-45.93654948 40.01970318 -45.93654948 40.01970318 -47 42 C-47.25048636 45.12549017 -47.25048636 45.12549017 -47 48 C-48.32 46.68 -49.64 45.36 -51 44 C-43.82399696 35.22932961 -35.72902369 27.18527373 -27.08203125 19.8671875 C-23.79471404 16.91908689 -20.73433382 13.74141488 -17.67944336 10.55444336 C-16.48910889 9.33331885 -15.24813346 8.16198283 -14 7 C-13.34 7 -12.68 7 -12 7 C-11.7525 6.401875 -11.505 5.80375 -11.25 5.1875 C-8.4878508 0.3537389 -5.42478674 -0.64056522 0 0 Z " fill="#EF519F" transform="translate(662,482)"/>
<path d="M0 0 C0 6.27 0 12.54 0 19 C-3.465 18.87625 -3.465 18.87625 -7 18.75 C-13.12105654 18.67161781 -18.09488734 19.08096669 -23 23 C-26.73559312 26.92716199 -28.09768956 30.01337955 -28.20532227 35.37963867 C-28.22526749 36.26032516 -28.24521271 37.14101166 -28.26576233 38.04838562 C-28.29083107 39.46882927 -28.29083107 39.46882927 -28.31640625 40.91796875 C-28.33718735 41.89034988 -28.35796844 42.86273102 -28.37937927 43.86457825 C-28.44478748 46.97214665 -28.50371929 50.07979985 -28.5625 53.1875 C-28.60569351 55.29362858 -28.64930807 57.39974856 -28.69335938 59.50585938 C-28.80125267 64.67048724 -28.90039123 69.83517907 -29 75 C-35.6 75 -42.2 75 -49 75 C-49 50.25 -49 25.5 -49 0 C-42.73 0 -36.46 0 -30 0 C-29.67 3.63 -29.34 7.26 -29 11 C-28.01 9.7625 -27.02 8.525 -26 7.25 C-19.66153275 0.11447999 -9.47038773 -4.73519387 0 0 Z " fill="#142664" transform="translate(1030,642)"/>
<path d="M0 0 C5.17189218 2.44984366 8.58513898 6.08375768 11.0859375 11.23828125 C13.33972399 18.04779854 13.05814796 26.41052901 10.375 33.0625 C7.78851915 38.00534775 4.36363507 41.21212164 -1 43 C-6.56545491 43.48988853 -11.40680952 43.76814541 -16.5 41.3125 C-21.97183748 36.25105033 -24.59424104 31.92091291 -25.37109375 24.4140625 C-25.50706243 16.65584957 -25.51599283 10.81577505 -20 5 C-13.69602669 -0.71755719 -8.33136213 -0.73064321 0 0 Z " fill="#FAFAFC" transform="translate(936,658)"/>
<path d="M0 0 C1.07701172 0.02707031 2.15402344 0.05414062 3.26367188 0.08203125 C10.23602073 0.34707455 15.38577634 1.08996139 21.25 5.0625 C22.99169095 7.82871504 22.88623893 9.56256148 22.3125 12.75 C17.07241644 18.52752802 11.05887914 20.47787495 3.38671875 21.03515625 C1.96642144 21.07614207 0.54576178 21.10601974 -0.875 21.125 C-1.89086182 21.14590698 -1.89086182 21.14590698 -2.92724609 21.16723633 C-8.83304259 21.1114666 -12.84389379 19.54509026 -17.0625 15.4375 C-19.07308082 12.11230864 -19.38982319 10.5737596 -18.6875 6.75 C-13.62251144 -1.28669771 -8.67798244 -0.33671184 0 0 Z " fill="#F7F8FA" transform="translate(844.6875,718.25)"/>
<path d="M0 0 C3.1875 2.1875 3.1875 2.1875 5.1875 5.1875 C5.77772577 9.71000916 5.71479459 13.88313971 4 18.125 C1.12704395 21.39422585 -0.95265345 22.95466425 -5.37109375 23.5078125 C-10.05524755 23.69848362 -13.11716921 23.529066 -17.375 21.4375 C-20.20340726 18.82666253 -21.52689039 16.84102932 -22.18359375 13.0390625 C-22.30471926 8.97779533 -22.21355066 6.0557962 -19.6875 2.75 C-14.00829926 -2.31189631 -6.84934082 -3.70887543 0 0 Z " fill="#F6F7F9" transform="translate(853.8125,655.8125)"/>
<path d="M0 0 C0.87914062 0.00902344 1.75828125 0.01804687 2.6640625 0.02734375 C4.8178271 0.05075423 6.97145014 0.0866199 9.125 0.125 C9.3099537 5.91336581 8.86340261 8.57829412 5.125 13.125 C-0.55682465 18.23864218 -4.66145088 19.60556453 -12.23828125 19.43359375 C-14.875 19.125 -14.875 19.125 -18 17.5625 C-20.53704669 14.2643393 -21.01848794 12.28615024 -20.875 8.125 C-15.69132433 -0.20029729 -8.92749088 -0.17478521 0 0 Z " fill="#F6F7F9" transform="translate(1075.875,683.875)"/>
<path d="M0 0 C0.88945313 0.00644531 1.77890625 0.01289062 2.6953125 0.01953125 C3.61570312 0.03628906 4.53609375 0.05304687 5.484375 0.0703125 C6.42023437 0.07933594 7.35609375 0.08835937 8.3203125 0.09765625 C10.62526157 0.12117614 12.9296866 0.15404397 15.234375 0.1953125 C15.10775682 1.62698486 14.97182773 3.05783557 14.83203125 4.48828125 C14.75734619 5.28516357 14.68266113 6.0820459 14.60571289 6.90307617 C13.91734328 11.15232157 11.98318474 13.87133154 8.578125 16.44921875 C3.13069156 19.65293473 -2.5709087 20.29874634 -8.765625 19.1953125 C-11.953125 17.1328125 -11.953125 17.1328125 -13.765625 14.1953125 C-14.390625 10.6953125 -14.390625 10.6953125 -13.765625 7.1953125 C-9.85760693 2.31028992 -6.25025039 -0.08013142 0 0 Z " fill="#F5F6F8" transform="translate(597.765625,683.8046875)"/>
<path d="M0 0 C0.88945313 0.00644531 1.77890625 0.01289062 2.6953125 0.01953125 C3.61570312 0.03628906 4.53609375 0.05304687 5.484375 0.0703125 C6.42023437 0.07933594 7.35609375 0.08835937 8.3203125 0.09765625 C10.62526157 0.12117614 12.9296866 0.15404397 15.234375 0.1953125 C15.44237873 5.75773482 15.03827961 8.86364572 11.90625 13.39453125 C7.60286236 18.02972215 2.07877991 19.40472112 -4.078125 19.6953125 C-7.47959372 19.55798612 -8.50750558 19.38418037 -11.328125 17.3203125 C-13.75241933 13.73657305 -14.27889951 11.55814584 -13.765625 7.1953125 C-9.79161145 2.33818483 -6.28239713 -0.08054355 0 0 Z " fill="#F7F8FA" transform="translate(764.765625,683.8046875)"/>
<path d="M0 0 C1.08152344 0.144375 2.16304687 0.28875 3.27734375 0.4375 C12.61335363 1.59778542 21.83994847 2.19343741 31.25 2.1875 C32.63626587 2.1884668 32.63626587 2.1884668 34.05053711 2.18945312 C38.9319759 2.15332169 43.80251963 2.02083959 48.67736816 1.76704407 C63.99637197 0.9783537 79.27805863 0.88012429 94.61480808 0.93153763 C98.07822122 0.94173112 101.54164096 0.94506781 105.00506592 0.94897461 C113.75339235 0.95992823 122.50169149 0.97951856 131.25 1 C140.74441623 1.02215157 150.23882198 1.04265024 159.73325896 1.05341816 C163.16221798 1.05755043 166.59114492 1.06380427 170.0200882 1.07516479 C173.83273432 1.08718069 177.64534658 1.09302964 181.45800781 1.09765625 C182.56986954 1.10282257 183.68173126 1.10798889 184.82728577 1.11331177 C191.60607386 1.11376668 198.26124988 0.7382846 205 0 C195.53554361 4.97619701 185.22670873 4.2861104 174.84472656 4.25878906 C173.11081801 4.26150254 171.37691061 4.26506548 169.64300537 4.26940918 C164.95270343 4.27849568 160.26248988 4.27500366 155.57218647 4.26865101 C150.6481993 4.26356838 145.72421942 4.26828904 140.80023193 4.27142334 C132.52859141 4.27505777 124.25698665 4.27027904 115.98535156 4.26074219 C106.44861611 4.24987306 96.91196629 4.25337412 87.37523293 4.264395 C79.16514236 4.27350001 70.95507743 4.27473705 62.74498343 4.26951766 C57.85140059 4.26641373 52.95785785 4.26594466 48.06427765 4.27259064 C43.4578836 4.27840985 38.85159875 4.2742843 34.24521637 4.26280212 C32.56393616 4.26017921 30.88264661 4.26087958 29.20137024 4.26532745 C9.60152094 4.31235908 9.60152094 4.31235908 1 2 C0.67 1.34 0.34 0.68 0 0 Z " fill="#842ECA" transform="translate(665,575)"/>
<path d="M0 0 C0.66 0.33 1.32 0.66 2 1 C1.34 1.66 0.68 2.32 0 3 C-0.21749479 5.67851092 -0.31140555 8.25674935 -0.31884766 10.93798828 C-0.32889328 11.75758026 -0.3389389 12.57717224 -0.34928894 13.42160034 C-0.38024534 16.13783041 -0.39719048 18.85396139 -0.4140625 21.5703125 C-0.43276415 23.45076355 -0.45233679 25.33120613 -0.4727478 27.2116394 C-0.52418108 32.16655489 -0.56374673 37.12149762 -0.60089111 42.07653809 C-0.64086075 47.13052165 -0.69198511 52.1843908 -0.7421875 57.23828125 C-0.83907926 67.15877393 -0.92344148 77.07933104 -1 87 C-1.33 87 -1.66 87 -2 87 C-2.79345896 83.51199679 -3.11850824 80.31231175 -3.09765625 76.73828125 C-3.09435303 75.71371826 -3.0910498 74.68915527 -3.08764648 73.63354492 C-3.07934814 72.5376001 -3.0710498 71.44165527 -3.0625 70.3125 C-3.05871338 69.17723877 -3.05492676 68.04197754 -3.05102539 66.87231445 C-3.03468744 62.02127686 -3.00652077 57.17032383 -2.97949219 52.31933594 C-2.96142541 48.77539458 -2.94932077 45.2314668 -2.9375 41.6875 C-2.92920166 40.59155518 -2.92090332 39.49561035 -2.91235352 38.36645508 C-2.90905029 37.34189209 -2.90574707 36.3173291 -2.90234375 35.26171875 C-2.89710693 34.36412842 -2.89187012 33.46653809 -2.88647461 32.54174805 C-3.00297447 29.93340379 -3.44723282 27.54764133 -4 25 C-4.0628992 23.62628143 -4.08676371 22.24994374 -4.0625 20.875 C-4.02554091 18.58353668 -4 16.29176136 -4 14 C-3.91956709 11.97808294 -3.81265401 9.95714218 -3.6875 7.9375 C-3.62949219 6.87402344 -3.57148437 5.81054688 -3.51171875 4.71484375 C-3.34285156 3.81894531 -3.17398438 2.92304688 -3 2 C-2.01 1.34 -1.02 0.68 0 0 Z " fill="#4D3E8C" transform="translate(691,450)"/>
<path d="M0 0 C0.66 0 1.32 0 2 0 C1.99777939 0.97639435 1.99555878 1.9527887 1.99327087 2.95877075 C1.97298186 12.16920618 1.95800009 21.37963707 1.94818783 30.5900898 C1.94297364 35.32504331 1.93590258 40.05997876 1.92456055 44.79492188 C1.91367963 49.36606905 1.90771212 53.93719887 1.90512276 58.508358 C1.90327789 60.25062203 1.89967535 61.99288513 1.89426994 63.73514175 C1.88699045 66.17908009 1.88601197 68.62294706 1.88647461 71.06689453 C1.88287933 71.78403122 1.87928406 72.50116791 1.87557983 73.24003601 C1.8838011 77.26475055 2.22271536 81.05103886 3 85 C5.64 84.67 8.28 84.34 11 84 C11 84.66 11 85.32 11 86 C4.73451947 87.32539011 4.73451947 87.32539011 1.79400635 86.02275085 C-0.9157495 82.96748799 -0.52619696 79.83209598 -0.45410156 75.94848633 C-0.45468567 75.12874832 -0.45526978 74.30901031 -0.45587158 73.46443176 C-0.45308342 70.75320175 -0.42195769 68.04306933 -0.390625 65.33203125 C-0.38316519 63.4530243 -0.37747103 61.57400957 -0.37347412 59.69499207 C-0.35819727 54.74804221 -0.3188978 49.8015617 -0.2746582 44.85479736 C-0.23374971 39.80755971 -0.21547256 34.76024626 -0.1953125 29.71289062 C-0.15240552 19.80838747 -0.08412939 9.90423276 0 0 Z " fill="#58358D" transform="translate(737,454)"/>
<path d="M0 0 C0.33 0 0.66 0 1 0 C1.495 8.415 1.495 8.415 2 17 C1.34 16.67 0.68 16.34 0 16 C0 15.34 0 14.68 0 14 C-1.98 14.99 -3.96 15.98 -6 17 C-6 16.34 -6 15.68 -6 15 C-6.90878906 15.47179687 -6.90878906 15.47179687 -7.8359375 15.953125 C-17.09791992 20.68386064 -26.05716332 24.16904444 -36.1640625 26.55957031 C-39.91246162 27.45026134 -43.51515315 28.46873298 -47.125 29.8125 C-50.70544356 31.09073897 -53.27696277 31.05008742 -57 30 C-57 29.67 -57 29.34 -57 29 C-56.06027344 28.85304688 -56.06027344 28.85304688 -55.1015625 28.703125 C-54.28429687 28.55359375 -53.46703125 28.4040625 -52.625 28.25 C-51.81289063 28.11078125 -51.00078125 27.9715625 -50.1640625 27.828125 C-47.82290908 27.18250739 -47.82290908 27.18250739 -46.7109375 24.921875 C-46.47632813 24.28765625 -46.24171875 23.6534375 -46 23 C-45.67 23.99 -45.34 24.98 -45 26 C-44.34 26.33 -43.68 26.66 -43 27 C-43 26.34 -43 25.68 -43 25 C-41.94941406 24.74605469 -40.89882813 24.49210938 -39.81640625 24.23046875 C-27.64508469 21.26128741 -16.1385173 17.95048767 -5 12 C-4.67 11.34 -4.34 10.68 -4 10 C-3.01 9.67 -2.02 9.34 -1 9 C-0.67 6.03 -0.34 3.06 0 0 Z " fill="#5C40D9" transform="translate(856,511)"/>
<path d="M0 0 C0.66 0 1.32 0 2 0 C2 17.49 2 34.98 2 53 C-3.94 52.67 -9.88 52.34 -16 52 C-16 51.67 -16 51.34 -16 51 C-10.72 51 -5.44 51 0 51 C0 34.17 0 17.34 0 0 Z " fill="#213068" transform="translate(551,664)"/>
<path d="M0 0 C0.99 0.33 1.98 0.66 3 1 C1.13128235 2.92314631 -0.74452468 4.8384057 -2.625 6.75 C-3.14707031 7.28882813 -3.66914062 7.82765625 -4.20703125 8.3828125 C-7.56226998 11.77947393 -10.97630007 14.39183994 -15 17 C-16.20552226 18.12647162 -17.37815696 19.29016927 -18.5 20.5 C-21.45140892 23.50978843 -24.2055144 26.06239033 -28 28 C-31.16674875 27.93790689 -33.09071453 27.53302941 -35.8125 25.9375 C-37.73111989 22.80712018 -37.70222112 19.63290229 -38 16 C-37.34 16 -36.68 16 -36 16 C-35.87625 17.11375 -35.7525 18.2275 -35.625 19.375 C-35.3534187 23.03103677 -35.3534187 23.03103677 -33 25 C-30.2607041 25.83939269 -30.2607041 25.83939269 -27 25 C-24.8199316 23.22081195 -22.97071989 21.27097081 -21.05859375 19.20703125 C-19.18586988 17.19927226 -17.2702713 15.40962408 -15.1875 13.625 C-10.03001475 9.18812147 -5.02234671 4.58843073 0 0 Z " fill="#2B44C5" transform="translate(642,459)"/>
<path d="M0 0 C3.875 1.875 3.875 1.875 5 3 C5.06391552 5.84929667 5.06619022 8.67500414 5.02734375 11.5234375 C5.01469534 13.28385219 5.00233454 15.04426896 4.99023438 16.8046875 C4.96541033 19.59186215 4.9374529 22.37893004 4.90405273 25.16601562 C4.87388182 27.84766329 4.85608228 30.5291744 4.83984375 33.2109375 C4.82638412 34.04539398 4.8129245 34.87985046 4.79905701 35.73959351 C4.77139892 40.66307318 4.77139892 40.66307318 7 45 C9.64 44.67 12.28 44.34 15 44 C14.67 44.99 14.34 45.98 14 47 C6.46930209 47.37036219 6.46930209 47.37036219 4.39735413 45.73522949 C2.69964334 43.62701815 2.61841868 42.62121089 2.59936523 39.94335938 C2.58602646 39.13241821 2.57268768 38.32147705 2.5589447 37.48596191 C2.55882889 36.61403198 2.55871307 35.74210205 2.55859375 34.84375 C2.54538589 33.94507202 2.53217804 33.04639404 2.51856995 32.1204834 C2.47763764 29.24695744 2.4559923 26.37375178 2.4375 23.5 C2.41372499 20.62634581 2.38562086 17.75299395 2.34571838 14.8795166 C2.32133841 13.09113086 2.30649853 11.30258461 2.30210876 9.51403809 C2.29192215 8.70309692 2.28173553 7.89215576 2.27124023 7.05664062 C2.26696518 6.34399048 2.26269012 5.63134033 2.25828552 4.89709473 C2.09593767 2.67007476 2.09593767 2.67007476 0 0 Z " fill="#443484" transform="translate(674,493)"/>
<path d="M0 0 C0.66 0.33 1.32 0.66 2 1 C0.11103562 3.51861917 -1.64698463 5.72410963 -4.13549805 7.66894531 C-8.07084789 10.87142723 -11.57184936 14.44926714 -15.14453125 18.046875 C-16.2992115 19.20367767 -16.2992115 19.20367767 -17.47721863 20.3838501 C-19.92467834 22.83688758 -22.36862949 25.29338722 -24.8125 27.75 C-26.47568084 29.41819871 -28.13908977 31.08617004 -29.80273438 32.75390625 C-33.8711357 36.8333071 -37.93666533 40.91555275 -42 45 C-42 42 -42 42 -39.69262695 39.35205078 C-38.63217843 38.29207865 -37.56343589 37.24036489 -36.48828125 36.1953125 C-35.92304245 35.63431854 -35.35780365 35.07332458 -34.7754364 34.49533081 C-32.96136631 32.69807053 -31.1371854 30.91147587 -29.3125 29.125 C-28.10152851 27.92907867 -26.89123372 26.73247171 -25.68164062 25.53515625 C-23.44338802 23.32138756 -21.20120439 21.11177056 -18.9543457 18.90673828 C-16.28689685 16.28701731 -13.63991213 13.64749485 -11 11 C-7.33333333 7.33333333 -3.66666667 3.66666667 0 0 Z " fill="#1672E9" transform="translate(695,348)"/>
<path d="M0 0 C-0.33 0.99 -0.66 1.98 -1 3 C-1.86625 3.4021875 -1.86625 3.4021875 -2.75 3.8125 C-5.36141675 5.19074773 -6.69707243 6.98643607 -8.50390625 9.27734375 C-10.83406959 11.96037778 -13.52610279 14.18850791 -16.23046875 16.484375 C-19.67294966 19.33528016 -19.67294966 19.33528016 -20.31884766 23.89892578 C-20.36058603 25.58083627 -20.39158771 27.26303432 -20.4140625 28.9453125 C-20.43342865 29.8303244 -20.4527948 30.7153363 -20.4727478 31.62716675 C-20.53262723 34.45967916 -20.57896213 37.29223203 -20.625 40.125 C-20.66317211 42.04298668 -20.70222338 43.96095607 -20.7421875 45.87890625 C-20.83833555 50.58579748 -20.92233542 55.29276896 -21 60 C-21.33 60 -21.66 60 -22 60 C-25.2953847 22.16044501 -25.2953847 22.16044501 -17.875 12.046875 C-6.71736848 0 -6.71736848 0 0 0 Z " fill="#0FB0F8" transform="translate(832,405)"/>
<path d="M0 0 C0 3.33612543 -0.36536335 3.85341414 -2.30078125 6.3984375 C-2.78353516 7.04296875 -3.26628906 7.6875 -3.76367188 8.3515625 C-4.27478516 9.01929688 -4.78589844 9.68703125 -5.3125 10.375 C-8.42831068 14.4918905 -11.36982475 18.54955103 -14 23 C-15.29579647 24.36984198 -16.61992749 25.7151049 -18 27 C-18.81434143 24.14839609 -19.11881242 21.63373869 -19.09765625 18.671875 C-19.09282227 17.47304688 -19.09282227 17.47304688 -19.08789062 16.25 C-19.07951172 15.425 -19.07113281 14.6 -19.0625 13.75 C-19.05798828 12.90953125 -19.05347656 12.0690625 -19.04882812 11.203125 C-19.03707961 9.13538599 -19.01914522 7.06768376 -19 5 C-18.01 5.495 -18.01 5.495 -17 6 C-17.03480469 6.77085937 -17.06960938 7.54171875 -17.10546875 8.3359375 C-17.13253906 9.33882812 -17.15960937 10.34171875 -17.1875 11.375 C-17.22230469 12.37273438 -17.25710938 13.37046875 -17.29296875 14.3984375 C-17.19628906 15.25695312 -17.09960938 16.11546875 -17 17 C-16.01 17.66 -15.02 18.32 -14 19 C-13.32453125 18.04738281 -12.6490625 17.09476563 -11.953125 16.11328125 C-11.0521602 14.8462995 -10.15111423 13.57937548 -9.25 12.3125 C-8.8065625 11.68666016 -8.363125 11.06082031 -7.90625 10.41601562 C-5.37084895 6.85526857 -2.76994764 3.38477246 0 0 Z " fill="#4C29AE" transform="translate(876,503)"/>
<path d="M0 0 C0.33 0 0.66 0 1 0 C1.33 5.61 1.66 11.22 2 17 C1.34 16.67 0.68 16.34 0 16 C0 15.34 0 14.68 0 14 C-1.98 14.99 -3.96 15.98 -6 17 C-6.6875 15.1875 -6.6875 15.1875 -7 13 C-5.15840327 10.51384442 -3.99529289 9.99843096 -1 9 C-0.67 6.03 -0.34 3.06 0 0 Z " fill="#643CDC" transform="translate(856,511)"/>
<path d="M0 0 C0.66 0.99 1.32 1.98 2 3 C0.845 2.690625 -0.31 2.38125 -1.5 2.0625 C-4.35645071 1.6997761 -5.5927136 1.74746704 -8.06640625 3.28125 C-10.12488841 5.11817342 -12.06289593 7.03593822 -14 9 C-15.32197313 10.15892142 -16.6545522 11.30591614 -18 12.4375 C-18.99 13.283125 -19.98 14.12875 -21 15 C-20.4550222 11.23469882 -19.04185472 9.85057889 -16.125 7.5 C-13.90899707 5.70103083 -12.11411655 4.15669735 -10.4296875 1.84375 C-7.53222195 -1.89287224 -4.15967937 -1.0620458 0 0 Z " fill="#25368F" transform="translate(715,434)"/>
<path d="M0 0 C0.33 0.66 0.66 1.32 1 2 C-1.32315139 7.57094016 -4.95986902 12.402963 -8.640625 17.13671875 C-10.4404361 19.6037012 -11.74943853 22.22097451 -13 25 C-13.66 25 -14.32 25 -15 25 C-13.48570516 18.84186764 -9.97058027 14.22642157 -6.375 9.125 C-5.76398437 8.24585938 -5.15296875 7.36671875 -4.5234375 6.4609375 C-3.02204517 4.30268602 -1.51413543 2.14932129 0 0 Z " fill="#2D7EF2" transform="translate(595,406)"/>
<path d="M0 0 C0 3 0 3 -2.625 5.91796875 C-3.74249406 7.01550756 -4.86785643 8.10507895 -6 9.1875 C-6.57234375 9.74630859 -7.1446875 10.30511719 -7.734375 10.88085938 C-9.14962788 12.26073093 -10.57397155 13.63126734 -12 15 C-12.66 14.34 -13.32 13.68 -14 13 C-12.23223041 11.20521865 -10.46097441 9.4141293 -8.6875 7.625 C-8.18798828 7.11710937 -7.68847656 6.60921875 -7.17382812 6.0859375 C-4.87457613 3.77145867 -2.72478775 1.81652517 0 0 Z " fill="#2A3E9F" transform="translate(779,420)"/>
<path d="M0 0 C1.4375 2.0625 1.4375 2.0625 2 4 C1.01 3.34 0.02 2.68 -1 2 C-4.81799991 1.50200001 -6.46153818 1.63685133 -9.6875 3.8125 C-12.39052829 6.35940615 -12.39052829 6.35940615 -15 9 C-15 5.02621451 -13.65246343 3.87350205 -11 1 C-7.3998269 -1.7311658 -4.23751136 -1.09861406 0 0 Z " fill="#23318D" transform="translate(663,481)"/>
<path d="M0 0 C0.66 0.33 1.32 0.66 2 1 C0.10730953 2.91985828 -1.78899017 4.83591037 -3.6875 6.75 C-4.21794922 7.28882813 -4.74839844 7.82765625 -5.29492188 8.3828125 C-8.37931499 11.48612827 -11.51576273 14.33672402 -15 17 C-15.66 16.67 -16.32 16.34 -17 16 C-12.35344118 11.24222036 -7.61171109 6.68207665 -2.56640625 2.34765625 C-1.68751602 1.59150381 -0.81982149 0.81982149 0 0 Z " fill="#2540B3" transform="translate(705,402)"/>
<path d="M0 0 C0.66 0.33 1.32 0.66 2 1 C-3.32751543 6.54949524 -8.67467725 11.60502098 -15 16 C-11.96900954 9.20998706 -5.68240917 4.57364641 0 0 Z " fill="#2441C6" transform="translate(663,440)"/>
<path d="M0 0 C0.99 0.495 0.99 0.495 2 1 C1.94779297 2.12148438 1.94779297 2.12148438 1.89453125 3.265625 C1.86746094 4.25046875 1.84039063 5.2353125 1.8125 6.25 C1.77769531 7.22453125 1.74289062 8.1990625 1.70703125 9.203125 C2.03924798 12.37468742 2.88672279 13.67040307 5 16 C3.68 16.99 2.36 17.98 1 19 C0 18 0 18 -0.11352539 16.23413086 C-0.10828857 15.48526611 -0.10305176 14.73640137 -0.09765625 13.96484375 C-0.09443359 13.15595703 -0.09121094 12.34707031 -0.08789062 11.51367188 C-0.07951172 10.66353516 -0.07113281 9.81339844 -0.0625 8.9375 C-0.05798828 8.08349609 -0.05347656 7.22949219 -0.04882812 6.34960938 C-0.03700373 4.23304337 -0.01906769 2.11651315 0 0 Z " fill="#22298D" transform="translate(857,508)"/>
<path d="M0 0 C0.66 0.33 1.32 0.66 2 1 C-0.26351478 3.15366577 -2.53699732 5.29650979 -4.8125 7.4375 C-5.77639648 8.35499023 -5.77639648 8.35499023 -6.75976562 9.29101562 C-7.38173828 9.87431641 -8.00371094 10.45761719 -8.64453125 11.05859375 C-9.50075073 11.86768188 -9.50075073 11.86768188 -10.37426758 12.69311523 C-12 14 -12 14 -15 15 C-13.58681481 11.6953208 -11.92720475 9.80491413 -9.1875 7.5 C-8.47980469 6.90058594 -7.77210938 6.30117188 -7.04296875 5.68359375 C-4.7141111 3.76440131 -2.37814075 1.85792246 0 0 Z " fill="#1A3497" transform="translate(776,446)"/>
<path d="M0 0 C0 3 0 3 -1.609375 4.9375 C-2.31578125 5.618125 -3.0221875 6.29875 -3.75 7 C-4.44609375 7.680625 -5.1421875 8.36125 -5.859375 9.0625 C-7.83014776 10.84626513 -9.84498901 12.44683893 -12 14 C-12.66 13.67 -13.32 13.34 -14 13 C-12.41984377 11.39270369 -10.83574348 9.78928424 -9.25 8.1875 C-8.36828125 7.29417969 -7.4865625 6.40085937 -6.578125 5.48046875 C-4.46551149 3.44787848 -2.39205335 1.68226182 0 0 Z " fill="#2339A7" transform="translate(798,402)"/>
<path d="M0 0 C0.66 0.33 1.32 0.66 2 1 C-1.63 4.63 -5.26 8.26 -9 12 C-9.99 11.34 -10.98 10.68 -12 10 C-12 9.34 -12 8.68 -12 8 C-11.0925 7.773125 -10.185 7.54625 -9.25 7.3125 C-5.52370133 5.80764861 -4.30556384 4.21132106 -2 1 C-1.34 0.67 -0.68 0.34 0 0 Z " fill="#1D2D83" transform="translate(621,513)"/>
<path d="M0 0 C1.32 1.32 2.64 2.64 4 4 C4 3.34 4 2.68 4 2 C5.65 2 7.3 2 9 2 C5.29502404 5.38280413 0.83488425 6.93949862 -4 8 C-7.5625 7.6875 -7.5625 7.6875 -10 7 C-10 6.67 -10 6.34 -10 6 C-7.03 5.34 -4.06 4.68 -1 4 C-0.67 2.68 -0.34 1.36 0 0 Z " fill="#5B40C2" transform="translate(809,534)"/>
<path d="M0 0 C-5.62470514 3.06802099 -10.69403048 4.89061647 -17 6 C-14.1237651 3.6776572 -11.36219578 2.13434158 -7.9375 0.75 C-7.08027344 0.39421875 -6.22304688 0.0384375 -5.33984375 -0.328125 C-3 -1 -3 -1 0 0 Z " fill="#23D1FA" transform="translate(726,260)"/>
<path d="M0 0 C0.99 0.33 1.98 0.66 3 1 C0.03 3.97 -2.94 6.94 -6 10 C-6.33 9.01 -6.66 8.02 -7 7 C-4.66666667 4.66666667 -2.33333333 2.33333333 0 0 Z " fill="#2E318A" transform="translate(637,497)"/>
<path d="M0 0 C0.66 0.33 1.32 0.66 2 1 C1.29423828 1.58201172 1.29423828 1.58201172 0.57421875 2.17578125 C-1.40992887 4.47502924 -1.68533163 6.21311811 -2.1875 9.1875 C-2.34605469 10.08855469 -2.50460937 10.98960937 -2.66796875 11.91796875 C-2.83232422 12.94857422 -2.83232422 12.94857422 -3 14 C-3.33 14 -3.66 14 -4 14 C-3.9131252 12.04082341 -3.80495488 10.08258129 -3.6875 8.125 C-3.62949219 7.03445313 -3.57148437 5.94390625 -3.51171875 4.8203125 C-3.34285156 3.88960938 -3.17398438 2.95890625 -3 2 C-2.01 1.34 -1.02 0.68 0 0 Z " fill="#1C348E" transform="translate(691,450)"/>
<path d="M0 0 C0.66 0.33 1.32 0.66 2 1 C-0.64 4.63 -3.28 8.26 -6 12 C-6.33 11.01 -6.66 10.02 -7 9 C-5.56640625 6.73828125 -5.56640625 6.73828125 -3.5625 4.3125 C-2.90378906 3.50425781 -2.24507812 2.69601562 -1.56640625 1.86328125 C-1.04949219 1.24839844 -0.53257812 0.63351562 0 0 Z " fill="#8841D8" transform="translate(927,521)"/>
<path d="M0 0 C0 0.99 0 1.98 0 3 C-0.7425 3.6496875 -0.7425 3.6496875 -1.5 4.3125 C-3.3314563 6.02209709 -3.3314563 6.02209709 -3.1875 9.1875 C-3.125625 10.115625 -3.06375 11.04375 -3 12 C-4.32 10.68 -5.64 9.36 -7 8 C-6.02133662 6.85373678 -5.04205413 5.70800212 -4.0625 4.5625 C-3.51722656 3.92441406 -2.97195313 3.28632812 -2.41015625 2.62890625 C-1.63204305 1.73008851 -0.84063472 0.84063472 0 0 Z " fill="#D64FA2" transform="translate(618,518)"/>
<path d="M0 0 C0.66 0.66 1.32 1.32 2 2 C1.04882866 3.1725131 0.08882991 4.33787015 -0.875 5.5 C-1.40867187 6.1496875 -1.94234375 6.799375 -2.4921875 7.46875 C-2.98976563 7.9740625 -3.48734375 8.479375 -4 9 C-4.66 9 -5.32 9 -6 9 C-4.68775452 5.06326356 -3.08089673 2.77280706 0 0 Z " fill="#23346E" transform="translate(572,678)"/>
<path d="M0 0 C0.33 0.515625 0.66 1.03125 1 1.5625 C3.46229584 3.33227513 4.25492998 3.07158882 7.1875 2.6875 C8.445625 2.460625 9.70375 2.23375 11 2 C10.67 2.99 10.34 3.98 10 5 C3.9453125 5.1953125 3.9453125 5.1953125 2 5 C1.34 4.34 0.68 3.68 0 3 C0 2.01 0 1.02 0 0 Z " fill="#172471" transform="translate(678,535)"/>
<path d="M0 0 C0.66 0.33 1.32 0.66 2 1 C0.68 1.99 -0.64 2.98 -2 4 C-1.34 2.68 -0.68 1.36 0 0 Z M-3 4 C-2.34 4.66 -1.68 5.32 -1 6 C-3.97 8.475 -3.97 8.475 -7 11 C-5.79618552 8.50638429 -4.54571278 6.31856917 -3 4 Z " fill="#155FE1" transform="translate(793,327)"/>
<path d="M0 0 C0.99 0.33 1.98 0.66 3 1 C-0.465 3.97 -0.465 3.97 -4 7 C-4.66 6.67 -5.32 6.34 -6 6 C-4.02 4.02 -2.04 2.04 0 0 Z " fill="#2039C2" transform="translate(642,459)"/>
<path d="M0 0 C0 3 0 3 -1.875 5.1875 C-4 7 -4 7 -6 7 C-4.60667426 3.63279613 -3.0210714 2.0140476 0 0 Z " fill="#223371" transform="translate(741,677)"/>
</svg>
